<svg width="24" height="24" version="1.1" viewBox="0 0 24 24" xmlns="http://www.w3.org/2000/svg">
  <path fill="currentColor" d="m7.7008 21.966c-0.66508-0.19581-0.95149-0.75531-0.757-1.4788 0.23636-0.87923 0.71294-1.6875 1.3705-2.3245 0.28017-0.27137 0.80034-0.66095 1.0607-0.79444 0.17433-0.08936 0.18665-0.12219 0.059624-0.15885-0.17265-0.04983-0.74083-0.38013-1.1052-0.64252-0.56017-0.40333-1.1876-1.0477-1.5314-1.5727l-0.06846-0.10454-0.1735 0.08217c-0.37725 0.17868-0.90826 0.08066-1.2267-0.22644-0.21789-0.21013-0.29642-0.4119-0.34288-0.88102-0.046257-0.46708-0.11917-0.6949-0.38111-1.1908-0.22639-0.42859-0.29455-0.7501-0.23484-1.1077 0.075261-0.45066 0.36014-0.91356 0.69297-1.126l0.15157-0.09673 0.02387-0.59499c0.026204-0.65323 0.10947-1.1038 0.31497-1.7046 0.56597-1.6545 1.8059-3.036 3.414-3.8037l0.3546-0.1693 0.064769-0.21634c0.12023-0.40156 0.33723-0.74397 0.68427-1.0797 0.36486-0.35295 0.62-0.50794 1.097-0.66643 0.28639-0.09515 0.38399-0.10783 0.83147-0.10803 0.44069-1.97e-4 0.54954 0.01338 0.83233 0.1038 0.86392 0.27624 1.5347 0.93652 1.7808 1.753l0.06503 0.21569 0.33347 0.15423c0.36421 0.16844 1.0779 0.61065 1.2813 0.79387 0.23028 0.20746 0.13687 0.52729-0.154 0.52729-0.07646 0-0.19551-0.05656-0.3341-0.15874-0.79742-0.58791-1.7458-0.99722-2.7209-1.1743-0.56233-0.10211-1.7351-0.09044-2.2864 0.02275-2.829 0.58087-4.835 2.8443-4.9736 5.6116l-0.013314 0.26592 0.13882-0.01168c0.13181-0.01109 0.14975-0.03198 0.3553-0.41371 0.74144-1.3769 1.7951-2.2439 3.1593-2.5998 0.47711-0.12444 1.4744-0.12428 1.9737 2.14e-4 0.19266 0.04808 0.4457 0.08742 0.56229 0.08742 0.11659 0 0.36962-0.03934 0.56229-0.08742 0.50252-0.1254 1.4963-0.12479 1.9799 0.0013 0.826 0.21522 1.4786 0.5864 2.1022 1.1956 0.459 0.44845 0.73682 0.81923 1.051 1.4026 0.2066 0.38366 0.22292 0.40257 0.35744 0.41383l0.14096 0.01179-0.01761-0.30516c-0.07012-1.215-0.48358-2.316-1.2495-3.3275-0.23784-0.31409-0.26494-0.41822-0.14574-0.56018 0.12235-0.14571 0.34901-0.12537 0.49655 0.04456 0.45413 0.52308 0.94465 1.4049 1.1848 2.1298 0.19972 0.60294 0.27424 1.01 0.30054 1.6416l0.02274 0.54638 0.27685 0.25865c0.31896 0.29799 0.50099 0.62542 0.56681 1.0196 0.06022 0.36042-0.0076 0.68051-0.2344 1.1103-0.26193 0.49588-0.33485 0.72369-0.38111 1.1908-0.02264 0.22875-0.07317 0.47984-0.11485 0.57067-0.09747 0.21252-0.33573 0.43867-0.56781 0.53896-0.23302 0.1007-0.65512 0.10726-0.8439 0.01312-0.07104-0.03542-0.14615-0.0644-0.16697-0.0644-0.02078 0-0.14956 0.14828-0.2861 0.32952-0.22223 0.29498-0.24398 0.34034-0.20753 0.43281 0.02237 0.05681 0.04069 0.16928 0.04069 0.24993v0.14663l0.23906-0.01667c0.29071-0.02029 0.49159 0.03889 0.68338 0.20128 0.29787 0.25222 0.29257 0.20993 0.29261 2.3333 3.3e-5 1.8873-4.44e-4 1.8984-0.09454 2.1555-0.16049 0.43845-0.41882 0.73868-0.85049 0.98844-0.46106 0.26676-0.31636 0.25946-5.064 0.25572-2.3491-0.0019-4.3167-0.0168-4.3724-0.03322zm2.0874-1.334c0.44207-0.43114 0.83732-0.8012 0.87833-0.82236 0.17647-0.09108 0.4007 0.07102 0.4007 0.28969 0 0.09359-0.1071 0.21794-0.61576 0.71493l-0.61576 0.60163h3.1285l-0.13391-0.24447c-0.18796-0.34315-0.22177-0.58537-0.22177-1.5891v-0.88043l-0.44009 0.41823c-0.24205 0.23003-0.46934 0.41824-0.50509 0.41824-0.20295 0-0.38237-0.20034-0.32783-0.36607 0.01506-0.0458 0.30767-0.36344 0.65021-0.70587 0.34254-0.34243 0.6228-0.64871 0.6228-0.68063 0-0.04821-0.05252-0.0542-0.31015-0.03541-0.39782 0.02901-1.1547-0.03149-1.5962-0.1276l-0.34476-0.07506-0.4056 0.19304c-1.1143 0.53034-1.966 1.4932-2.3514 2.6581-0.17875 0.54038-0.14917 0.78652 0.11304 0.94071 0.11176 0.06572 0.20639 0.07601 0.70007 0.07614l0.57084 1.56e-4zm4.9103 0.67532c0.3357-0.16644 0.54458-0.49987 0.54458-0.86931 0-0.38824-0.21803-0.71037-0.5982-0.88381-0.26158-0.11934-0.32975-0.1874-0.3316-0.33106-2e-3 -0.14626 0.05125-0.19435 0.57358-0.5189 0.26041-0.16181 0.49434-0.33179 0.51984-0.37774 0.06179-0.11129 0.01473-0.2995-0.09294-0.37226-0.17025-0.115-0.296-0.07049-1.1618 0.41128-0.67425 0.37518-0.85448 0.49292-0.89344 0.58362-0.0344 0.0801-0.04461 0.35401-0.03453 0.92837 0.0131 0.74887 0.02145 0.8278 0.10329 0.97622 0.10742 0.19483 0.40483 0.45556 0.58786 0.51535 0.19413 0.06342 0.59456 0.03185 0.78338-0.06176zm2.0115 0.0041c0.27152-0.11917 0.50173-0.33741 0.64252-0.60911 0.10691-0.20633 0.12309-0.2794 0.12267-0.55412-5.57e-4 -0.36394-0.05975-0.61024-0.22645-0.9423-0.15789-0.31449-0.56989-0.71057-0.90975-0.87459l-0.26262-0.12674-0.04619 0.15191c-0.09902 0.3258-0.25319 0.50708-0.60496 0.71138-0.08801 0.05112-0.16729 0.09834-0.17613 0.10492-0.0085 0.0066 0.06117 0.09277 0.15556 0.19154 0.48812 0.5107 0.58564 1.3275 0.22265 1.865-0.0542 0.08021-0.09851 0.15683-0.09851 0.17026 0 0.01342 0.22358 0.01761 0.49685 0.0093 0.39504-0.01203 0.53527-0.03198 0.68434-0.0974zm0.69937-4.5952c-0.09579-0.1021-0.34454-0.09661-0.44455 0.0098-0.06724 0.07155-0.07882 0.15652-0.08925 0.65518l-0.01194 0.57296 0.13433 0.08681c0.0739 0.04774 0.20702 0.15863 0.29588 0.2464l0.16154 0.15959 0.01097-0.82917c0.0095-0.73021 3e-3 -0.83781-0.05701-0.90158zm-3.6959 1.2208 0.11128-0.06105 2.44e-4 -1.0072c2.43e-4 -0.95524-0.0041-1.0113-0.08085-1.0854-0.12077-0.11647-0.33788-0.10431-0.44321 0.02483-0.0807 0.09897-0.08405 0.14884-0.08405 1.2554v1.1523l0.19266-0.10891c0.10596-0.0599 0.24274-0.13638 0.30394-0.16996zm2.4844-2.1399c-0.09233-0.13586-0.34851-0.12978-0.46333 0.011-0.07865 0.09639-0.08406 0.15325-0.08406 0.87778 0 0.57628 0.01296 0.78282 0.05064 0.80636 0.02787 0.0174 0.16018 0.05895 0.29406 0.09232l0.24342 0.06068 0.01093-0.87804c0.0088-0.73776 9.1e-4 -0.89275-0.05162-0.97011zm-1.5147 1.6098c0.11933-0.05357 0.2489-0.09758 0.28794-0.09779 0.06604-4.28e-4 0.07101-0.083 0.07101-1.1847 0-1.3472-0.0024-1.3582-0.28328-1.3582-0.12129 0-0.17611 0.02344-0.24105 0.10306-0.08111 0.09944-0.08406 0.14751-0.08406 1.369 0 0.69628 0.0076 1.266 0.01622 1.266 0.0086 0 0.11389-0.04383 0.23322-0.09741zm-2.3484-0.24101 0.27378-0.02494v-0.60286c0-0.72049 0.03804-0.89223 0.24883-1.1232 0.19833-0.2173 0.43259-0.30921 0.74094-0.29072 0.15756 0.0095 0.22711-8.56e-4 0.22707-0.03335-3.57e-4 -0.32153 0.23241-0.68808 0.52996-0.83447 0.20222-0.09949 0.56685-0.10104 0.78984-0.0034 0.28612 0.12534 0.50526 0.44486 0.50538 0.73686l4.1e-5 0.14794 0.73474-0.001284 0.2208-0.30984c0.42418-0.59522 0.75535-1.384 0.8915-2.1235 0.0376-0.20438 0.06328-0.57143 0.0635-0.90977 5.74e-4 -0.78699-0.09267-1.233-0.36854-1.7623-0.69436-1.3324-1.711-2.1618-2.9536-2.4096-0.39444-0.07867-1.2095-0.05258-1.5697 0.05023-0.33118 0.09455-1.0073 0.09455-1.3385 0-0.36013-0.10282-1.1752-0.1289-1.5697-0.05023-1.2419 0.24769-2.2682 1.0856-2.9586 2.4155-0.26561 0.51167-0.36248 0.97384-0.36405 1.7369-0.00229 1.1177 0.28911 2.0559 0.92804 2.9877 0.28267 0.41224 0.89643 1.0318 1.3406 1.3533 1.0243 0.74134 2.46 1.1573 3.6275 1.0509zm-0.58985-3.3781c-0.32949-0.24995-0.15587-0.78169 0.25523-0.78169 0.29563 0 0.50139 0.28726 0.4058 0.56656-0.06217 0.18174-0.21712 0.29398-0.4058 0.29398-0.09028 0-0.19322-0.0318-0.25523-0.07884zm-2.3522-0.60114c-0.21267-0.05678-0.46263-0.23044-0.5533-0.38438-0.048008-0.08151-0.049087-0.11892-0.00633-0.21852 0.092476-0.21529 0.3478-0.23107 0.56434-0.03489 0.067295 0.06096 0.14528 0.08566 0.27053 0.08566 0.12525 0 0.20324-0.02469 0.27053-0.08566 0.20582-0.18647 0.46442-0.18125 0.55535 0.01121 0.06967 0.14745 0.05798 0.19562-0.08567 0.35341-0.23397 0.25699-0.65345 0.36984-1.0155 0.27318zm4.6643 0c-0.21267-0.05678-0.46263-0.23044-0.5533-0.38438-0.04804-0.08151-0.04909-0.11892-0.0066-0.21852 0.09248-0.21529 0.3478-0.23107 0.56434-0.03489 0.06729 0.06096 0.14528 0.08566 0.27053 0.08566 0.12525 0 0.20324-0.02469 0.27053-0.08566 0.20581-0.18647 0.46442-0.18125 0.55535 0.01121 0.06965 0.14745 0.05798 0.19562-0.08567 0.35341-0.23397 0.25699-0.65345 0.36984-1.0155 0.27318zm-2.5031-2.2176c-0.40807-0.17793-0.64851-0.53982-0.64767-0.97481 0.0012-0.60865 0.46416-1.0553 1.0938-1.0553 0.62966 0 1.0926 0.44669 1.0938 1.0553 0.0012 0.60693-0.46302 1.0544-1.0938 1.0544-0.17829 0-0.32272-0.02576-0.44616-0.07959zm0.71937-0.5693c0.2667-0.16046 0.30355-0.52207 0.07563-0.7419-0.12147-0.11714-0.16303-0.13299-0.34881-0.13299s-0.22734 0.01584-0.34881 0.13299c-0.12022 0.11594-0.1379 0.15818-0.1379 0.32948 0 0.1542 0.02252 0.22233 0.10476 0.31656 0.1665 0.19083 0.4326 0.22977 0.65516 0.09587zm-5.9982 4.0498c0.070253-0.02362 0.12773-0.06356 0.12773-0.08875 0-0.0252-0.053525-0.16869-0.11894-0.31887-0.16204-0.37201-0.31774-0.90333-0.38916-1.328-0.06874-0.40869-0.078275-1.3737-0.017151-1.7369 0.02307-0.13714 0.032468-0.2585 0.020884-0.26968-0.042046-0.04055-0.37967 0.11356-0.54158 0.24721-0.2525 0.20844-0.39464 0.52079-0.39069 0.85854 0.0029 0.25273 0.020768 0.30692 0.23141 0.70409 0.24808 0.46774 0.39326 0.95077 0.39384 1.3103 4.438e-4 0.26329 0.094348 0.45656 0.28 0.57617 0.15519 0.09998 0.22057 0.10741 0.40368 0.04585zm11.854-0.04585c0.18565-0.1196 0.27957-0.31288 0.28-0.57617 5.54e-4 -0.34277 0.14127-0.81854 0.38367-1.2972 0.12351-0.24388 0.23577-0.52436 0.24948-0.62328 0.068-0.49057-0.35355-1.0783-0.85143-1.1872-0.1112-0.02431-0.11536-0.02037-0.08884 0.08404 0.01531 0.06025 0.03804 0.41871 0.05053 0.79657 0.03148 0.95333-0.0958 1.6728-0.43743 2.4718-0.06458 0.15101-0.11741 0.28828-0.11741 0.30504 0 0.0377 0.1932 0.10797 0.30834 0.11214 0.04686 0.0017 0.14728-0.03686 0.22308-0.0857zm-7.6902-10.682c0.54147-0.12766 0.87027-0.16065 1.5818-0.1587 0.72332 0.0019 1.1241 0.04755 1.6813 0.19118 0.12166 0.03136 0.22914 0.04935 0.23885 0.03998 0.04314-0.04159-0.27952-0.47744-0.50212-0.67832-0.65517-0.59121-1.5581-0.71684-2.398-0.33365-0.27932 0.12744-0.71441 0.51588-0.86906 0.77589-0.1365 0.2295-0.14415 0.26864-0.04713 0.24112 0.03903-0.01107 0.18049-0.04595 0.31434-0.07751z"/>
</svg>