<svg width="24" height="24" version="1.1" viewBox="0 0 24 24" xmlns="http://www.w3.org/2000/svg">
  <path d="m17.709 0.88672c-0.2588-0.0068664-0.52479 0.11048-0.70312 0.36719-0.093986 0.13529-0.10629 0.2012-0.11914 0.69531l-0.013672 0.54492h-4.9043-4.9043v-0.49023c0-0.54851-0.04369-0.69662-0.25391-0.89258-0.37253-0.34726-0.93243-0.28301-1.2305 0.14062-0.12162 0.17288-0.12766 0.2063-0.14453 0.70703l-0.017578 0.52539-0.8457 0.017578c-0.79236 0.01671-0.86796 0.026403-1.207 0.14062-0.92312 0.31097-1.6379 1.0551-1.8965 1.9766-0.088509 0.31542-0.087891 0.36551-0.087891 7.9531 0 7.5876-6.094e-4 7.6358 0.087891 7.9512 0.14196 0.50596 0.35959 0.86988 0.75 1.2559 0.45861 0.45341 1.067 0.76521 1.6367 0.83984 0.31953 0.04184 16.03 0.026785 16.295-0.015625 1.0936-0.17524 2.0509-1.0406 2.3262-2.1035 0.083691-0.3233 0.085938-0.48884 0.085938-7.9473 0-7.5691 6.09e-4 -7.6182-0.087891-7.9336-0.25855-0.92146-0.97336-1.6656-1.8965-1.9766-0.33939-0.11433-0.41504-0.12382-1.2129-0.14062l-0.84961-0.017578v-0.41016c-1.2e-4 -0.22558-0.020995-0.48653-0.046875-0.58008-0.10659-0.38538-0.42702-0.59859-0.75977-0.60742zm-12.975 3.2227h0.68359l0.017578 0.5c0.018818 0.56188 0.08234 0.75192 0.31055 0.92383 0.31836 0.23982 0.7408 0.23207 1.0332-0.021484 0.23908-0.20732 0.28516-0.35134 0.28516-0.9082v-0.49414h4.9062 4.9082v0.49414c0 0.55686 0.046074 0.70088 0.28516 0.9082 0.31859 0.27626 0.78946 0.25759 1.0918-0.041016 0.19967-0.1972 0.25977-0.41712 0.25977-0.95508v-0.40625h0.68945c0.57116 0 0.7244 0.0133 0.90234 0.080078 0.33223 0.12468 0.53946 0.31427 0.69922 0.63477l0.14258 0.2832v7.4629 7.4629l-0.11524 0.24024c-0.1479 0.31157-0.41275 0.56241-0.70898 0.67187-0.2338 0.08639-0.2804 0.086985-8.166 0.083985-8.6534-0.003268-8.0739 0.015185-8.4336-0.24609-0.21204-0.154-0.35562-0.34315-0.45508-0.59766-0.071748-0.18354-0.076172-0.62248-0.076172-7.6367v-7.4414l0.14258-0.2832c0.15976-0.3205 0.36699-0.51009 0.69922-0.63477 0.17773-0.066698 0.33173-0.080078 0.89844-0.080078zm2.707 3.9473a0.8486 0.8486 0 0 0-0.84766 0.84766 0.8486 0.8486 0 0 0 0.84766 0.84961 0.8486 0.8486 0 0 0 0.84961-0.84961 0.8486 0.8486 0 0 0-0.84961-0.84766zm4.4687 0a0.8486 0.8486 0 0 0-0.84961 0.84766 0.8486 0.8486 0 0 0 0.84961 0.84961 0.8486 0.8486 0 0 0 0.84766-0.84961 0.8486 0.8486 0 0 0-0.84766-0.84766zm4.4688 0a0.8486 0.8486 0 0 0-0.84961 0.84766 0.8486 0.8486 0 0 0 0.84961 0.84961 0.8486 0.8486 0 0 0 0.84766-0.84961 0.8486 0.8486 0 0 0-0.84766-0.84766zm-8.9375 3.7793a0.8486 0.8486 0 0 0-0.84766 0.84961 0.8486 0.8486 0 0 0 0.84766 0.84766 0.8486 0.8486 0 0 0 0.84961-0.84766 0.8486 0.8486 0 0 0-0.84961-0.84961zm4.4687 0a0.8486 0.8486 0 0 0-0.84961 0.84961 0.8486 0.8486 0 0 0 0.84961 0.84766 0.8486 0.8486 0 0 0 0.84766-0.84766 0.8486 0.8486 0 0 0-0.84766-0.84961zm4.4688 0a0.8486 0.8486 0 0 0-0.84961 0.84961 0.8486 0.8486 0 0 0 0.84961 0.84766 0.8486 0.8486 0 0 0 0.84766-0.84766 0.8486 0.8486 0 0 0-0.84766-0.84961zm-8.9375 3.7812a0.8486 0.8486 0 0 0-0.84766 0.84766 0.8486 0.8486 0 0 0 0.84766 0.84961 0.8486 0.8486 0 0 0 0.84961-0.84961 0.8486 0.8486 0 0 0-0.84961-0.84766zm4.4687 0a0.8486 0.8486 0 0 0-0.84961 0.84766 0.8486 0.8486 0 0 0 0.84961 0.84961 0.8486 0.8486 0 0 0 0.84766-0.84961 0.8486 0.8486 0 0 0-0.84766-0.84766zm4.4688 0a0.8486 0.8486 0 0 0-0.84961 0.84766 0.8486 0.8486 0 0 0 0.84961 0.84961 0.8486 0.8486 0 0 0 0.84766-0.84961 0.8486 0.8486 0 0 0-0.84766-0.84766z"/>
</svg>
