<?xml version="1.0" encoding="UTF-8" standalone="no"?>
<!-- Created with Inkscape (http://www.inkscape.org/) -->

<svg
   width="512"
   height="512"
   viewBox="0 0 512 512"
   version="1.1"
   id="svg5"
   inkscape:version="1.1.1 (26b7af14f2, 2022-01-19)"
   sodipodi:docname="appicon.svg"
   inkscape:export-filename="/home/tiendat/Downloads/icon-512x512.png"
   inkscape:export-xdpi="96"
   inkscape:export-ydpi="96"
   xmlns:inkscape="http://www.inkscape.org/namespaces/inkscape"
   xmlns:sodipodi="http://sodipodi.sourceforge.net/DTD/sodipodi-0.dtd"
   xmlns="http://www.w3.org/2000/svg"
   xmlns:svg="http://www.w3.org/2000/svg">
  <sodipodi:namedview
     id="namedview7"
     pagecolor="#ffffff"
     bordercolor="#999999"
     borderopacity="1"
     inkscape:pageshadow="0"
     inkscape:pageopacity="0"
     inkscape:pagecheckerboard="0"
     inkscape:document-units="px"
     showgrid="false"
     units="px"
     width="24px"
     inkscape:zoom="0.5968715"
     inkscape:cx="279.79222"
     inkscape:cy="353.50993"
     inkscape:window-width="1386"
     inkscape:window-height="844"
     inkscape:window-x="126"
     inkscape:window-y="190"
     inkscape:window-maximized="0"
     inkscape:current-layer="svg5"
     showguides="false" />
  <defs
     id="defs2">
    <rect
       x="-407.79562"
       y="260.92911"
       width="179.50999"
       height="71.176023"
       id="rect6631" />
    <rect
       x="128.62097"
       y="362.89777"
       width="238.75552"
       height="60.559758"
       id="rect9350" />
    <clipPath
       clipPathUnits="userSpaceOnUse"
       id="clipPath26">
      <path
         d="M 0,807 H 712 V 0 H 0 Z"
         id="path24" />
    </clipPath>
    <mask
       maskUnits="userSpaceOnUse"
       x="0"
       y="0"
       width="1"
       height="1"
       id="mask40">
      <g
         id="g56">
        <g
           clip-path="url(#clipPath34)"
           id="g54">
          <path
             d="m 163.75,548.25 h 384.5 v -384.5 h -384.5 z"
             style="fill:#000000;fill-opacity:1;fill-rule:nonzero;stroke:none"
             id="path42" />
          <g
             id="g52">
            <g
               id="g44" />
            <g
               id="g50">
              <g
                 clip-path="url(#clipPath38)"
                 id="g48">
                <path
                   d="M 99.917,612.083 H 612.586 V 99.414 H 99.917 Z"
                   style="fill:#ffffff;fill-opacity:1;fill-rule:nonzero;stroke:none"
                   id="path46" />
              </g>
            </g>
          </g>
        </g>
      </g>
    </mask>
    <clipPath
       clipPathUnits="userSpaceOnUse"
       id="clipPath34">
      <path
         d="m 163.75,548.25 h 384.5 v -384.5 h -384.5 z"
         id="path32" />
    </clipPath>
    <clipPath
       clipPathUnits="userSpaceOnUse"
       id="clipPath38">
      <path
         d="m 163.75,548.25 h 384.5 v -384.5 h -384.5 z"
         id="path36" />
    </clipPath>
    <clipPath
       clipPathUnits="userSpaceOnUse"
       id="clipPath64">
      <path
         d="m 163.75,548.25 h 384.5 v -384.5 h -384.5 z"
         id="path62" />
    </clipPath>
    <clipPath
       clipPathUnits="userSpaceOnUse"
       id="clipPath68">
      <path
         d="M 164,548 H 548 V 164 H 164 Z"
         id="path66" />
    </clipPath>
    <clipPath
       clipPathUnits="userSpaceOnUse"
       id="clipPath72">
      <path
         d="M 164.066,547.968 H 547.999 V 163.956 H 164.066 Z"
         id="path70" />
    </clipPath>
    <clipPath
       clipPathUnits="userSpaceOnUse"
       id="clipPath76">
      <path
         d="M 164.02,547.93 H 547.835 V 164.176 H 164.02 Z"
         id="path74" />
    </clipPath>
    <clipPath
       clipPathUnits="userSpaceOnUse"
       id="clipPath80">
      <path
         d="m 299.75,548.25 h 0.5 v -384.5 h -0.5 z"
         id="path78" />
    </clipPath>
    <clipPath
       clipPathUnits="userSpaceOnUse"
       id="clipPath84">
      <path
         d="m 355.75,548.25 h 0.5 v -384.5 h -0.5 z"
         id="path82" />
    </clipPath>
    <clipPath
       clipPathUnits="userSpaceOnUse"
       id="clipPath88">
      <path
         d="m 411.83,548.25 h 0.5 v -384.5 h -0.5 z"
         id="path86" />
    </clipPath>
    <clipPath
       clipPathUnits="userSpaceOnUse"
       id="clipPath92">
      <path
         d="m 163.9,412.1 h 383.933 v -0.2 H 163.9 Z"
         id="path90" />
    </clipPath>
    <clipPath
       clipPathUnits="userSpaceOnUse"
       id="clipPath96">
      <path
         d="m 163.9,356.1 h 383.933 v -0.2 H 163.9 Z"
         id="path94" />
    </clipPath>
    <clipPath
       clipPathUnits="userSpaceOnUse"
       id="clipPath100">
      <path
         d="m 163.75,300.25 h 384.233 v -0.5 H 163.75 Z"
         id="path98" />
    </clipPath>
  </defs>
  <rect
     style="fill:#000000;fill-rule:evenodd"
     id="rect1042"
     width="512"
     height="512"
     x="0"
     y="0" />
  <g
     id="g20"
     transform="matrix(1.3315995,0,0,-1.3315995,-218.04942,730.04942)"
     inkscape:label="guidelines"
     style="display:none">
    <path
       d="M 164,548 H 548 V 164 H 164 Z"
       style="display:inline;opacity:0.100006;fill:#66ddb7;fill-opacity:1;fill-rule:nonzero;stroke:none"
       id="path104" />
    <path
       d="M 164,548 H 548 V 164 H 164 Z"
       style="fill:none;stroke:#65dcb7;stroke-width:0.5;stroke-linecap:butt;stroke-linejoin:miter;stroke-miterlimit:4;stroke-dasharray:none;stroke-opacity:1"
       id="path112" />
    <path
       d="m 164.4194,164.3096 383.226,383.305"
       style="opacity:0.300003;fill:none;stroke:#65dcb7;stroke-width:0.5;stroke-linecap:square;stroke-linejoin:miter;stroke-miterlimit:4;stroke-dasharray:none;stroke-opacity:1"
       id="path136" />
    <path
       d="m 547.4814,164.5293 -383.107,383.047"
       style="opacity:0.300003;fill:none;stroke:#65dcb7;stroke-width:0.5;stroke-linecap:square;stroke-linejoin:miter;stroke-miterlimit:4;stroke-dasharray:none;stroke-opacity:1"
       id="path148" />
    <path
       d="M 300,548 V 164"
       style="opacity:0.300003;fill:none;stroke:#65dcb7;stroke-width:0.5;stroke-linecap:square;stroke-linejoin:miter;stroke-miterlimit:4;stroke-dasharray:none;stroke-opacity:1"
       id="path160" />
    <path
       d="M 356,548 V 164"
       style="opacity:0.300003;fill:none;stroke:#65dcb7;stroke-width:0.5;stroke-linecap:square;stroke-linejoin:miter;stroke-miterlimit:4;stroke-dasharray:none;stroke-opacity:1"
       id="path172" />
    <path
       d="M 412.0801,548 V 164"
       style="opacity:0.300003;fill:none;stroke:#65dcb7;stroke-width:0.5;stroke-linecap:square;stroke-linejoin:miter;stroke-miterlimit:4;stroke-dasharray:none;stroke-opacity:1"
       id="path184" />
    <path
       d="M 547.7334,412 H 164.0004"
       style="opacity:0.300003;fill:none;stroke:#65dcb7;stroke-width:0.2;stroke-linecap:square;stroke-linejoin:miter;stroke-miterlimit:4;stroke-dasharray:none;stroke-opacity:1"
       id="path196" />
    <path
       d="M 547.7334,356 H 164.0004"
       style="opacity:0.300003;fill:none;stroke:#65dcb7;stroke-width:0.2;stroke-linecap:square;stroke-linejoin:miter;stroke-miterlimit:4;stroke-dasharray:none;stroke-opacity:1"
       id="path208" />
    <path
       d="M 547.7334,300 H 164.0004"
       style="opacity:0.300003;fill:none;stroke:#65dcb7;stroke-width:0.5;stroke-linecap:square;stroke-linejoin:miter;stroke-miterlimit:4;stroke-dasharray:none;stroke-opacity:1"
       id="path220" />
    <g
       id="g16581"
       transform="matrix(0.81702107,0,0,0.81702107,65.140538,65.140498)">
      <path
         d="m 356,436 c 44.183,0 80,-35.817 80,-80 0,-44.183 -35.817,-80 -80,-80 -44.183,0 -80,35.817 -80,80 0,44.183 35.817,80 80,80 z"
         style="fill:none;stroke:#65dcb7;stroke-width:0.5;stroke-linecap:butt;stroke-linejoin:miter;stroke-miterlimit:4;stroke-dasharray:none;stroke-opacity:1"
         id="path130" />
      <path
         d="m 231.0039,532 h 249.992 c 1.659,0 3.004,-1.345 3.004,-3.004 V 183.004 c 0,-1.659 -1.345,-3.004 -3.004,-3.004 h -249.992 c -1.659,0 -3.004,1.345 -3.004,3.004 v 345.992 c 0,1.659 1.345,3.004 3.004,3.004 z"
         style="fill:none;stroke:#65dcb7;stroke-width:0.5;stroke-linecap:butt;stroke-linejoin:miter;stroke-miterlimit:4;stroke-dasharray:none;stroke-opacity:1"
         id="path118" />
      <path
         d="m 207.0039,508 h 297.992 c 1.659,0 3.004,-1.345 3.004,-3.004 V 207.004 c 0,-1.659 -1.345,-3.004 -3.004,-3.004 h -297.992 c -1.659,0 -3.004,1.345 -3.004,3.004 v 297.992 c 0,1.659 1.345,3.004 3.004,3.004 z"
         style="fill:none;stroke:#65dcb7;stroke-width:0.5;stroke-linecap:butt;stroke-linejoin:miter;stroke-miterlimit:4;stroke-dasharray:none;stroke-opacity:1"
         id="path122" />
      <path
         d="m 356,532 c 97.202,0 176,-78.798 176,-176 0,-97.202 -78.798,-176 -176,-176 -97.202,0 -176,78.798 -176,176 0,97.202 78.798,176 176,176 z"
         style="fill:none;stroke:#65dcb7;stroke-width:0.5;stroke-linecap:butt;stroke-linejoin:miter;stroke-miterlimit:4;stroke-dasharray:none;stroke-opacity:1"
         id="path126" />
      <path
         d="m 183.0039,484 h 345.992 c 1.659,0 3.004,-1.345 3.004,-3.004 V 231.004 c 0,-1.659 -1.345,-3.004 -3.004,-3.004 h -345.992 c -1.659,0 -3.004,1.345 -3.004,3.004 v 249.992 c 0,1.659 1.345,3.004 3.004,3.004 z"
         style="fill:none;stroke:#65dcb7;stroke-width:0.5;stroke-linecap:butt;stroke-linejoin:miter;stroke-miterlimit:4;stroke-dasharray:none;stroke-opacity:1"
         id="path114" />
    </g>
  </g>
  <g
     id="g16590"
     transform="matrix(0.94581281,0,0,0.87671232,13.871919,45.625997)"
     style="opacity:1">
    <path
       style="opacity:1;fill:#ffffff;stroke-width:0.840452"
       d="m 100.44914,458.45844 c -10.920148,-1.5024 -22.587835,-7.79488 -31.378007,-16.92242 -7.482837,-7.77006 -11.643407,-15.09126 -14.364397,-25.27661 -1.696303,-6.34966 -1.706733,-7.32793 -1.706733,-160.07272 0,-152.74475 0.01039,-153.72304 1.706733,-160.072703 4.955506,-18.549659 18.640705,-33.540551 36.334111,-39.800708 6.498834,-2.299368 7.946549,-2.475333 23.133623,-2.811728 l 16.20093,-0.358846 0.33999,-10.592929 c 0.32351,-10.080202 0.45854,-10.769938 2.78975,-14.250192 5.7125,-8.528177 16.45045,-9.812799 23.59058,-2.82224 4.02919,3.944772 4.83099,6.927149 4.83099,17.96918 v 9.87134 h 94.00751 94.00749 l 0.27188,-10.980518 c 0.24629,-9.946874 0.45909,-11.263527 2.26047,-13.986968 7.81305,-11.812154 24.41376,-8.940292 28.04567,4.8518 0.4959,1.883172 0.90371,7.1394 0.90623,11.680504 l 0.005,8.256555 16.29774,0.360585 c 15.29221,0.338337 16.7255,0.511923 23.23043,2.813457 17.69341,6.260157 31.37861,21.251049 36.33413,39.800708 C 458.98947,102.46338 459,103.44599 459,255.81858 c 0,150.14416 -0.034,153.45336 -1.63857,159.96155 -5.27549,21.39648 -23.63298,38.83572 -44.59395,42.36333 -5.07377,0.8539 -306.19352,1.15757 -312.31795,0.31498 z M 412.2822,424.77882 c 5.6778,-2.20358 10.74969,-7.25348 13.58439,-13.52553 l 2.18792,-4.84093 V 256.1687 105.92505 l -2.71071,-5.71164 c -3.06204,-6.451913 -7.04587,-10.237963 -13.41371,-12.747823 -3.41069,-1.3443 -6.35776,-1.62023 -17.30515,-1.62023 h -13.19436 v 8.18082 c 0,10.829483 -1.14688,15.264493 -4.97388,19.234253 -5.79492,6.01111 -14.83292,6.35266 -20.9392,0.79126 -4.58247,-4.17356 -5.44463,-7.06781 -5.44463,-18.277853 v -9.92848 H 255.9998 161.92671 v 9.92848 c 0,11.210043 -0.86213,14.104293 -5.4446,18.277853 -5.60443,5.10431 -13.69741,5.29549 -19.79929,0.46774 -4.374,-3.46066 -5.60622,-7.3051 -5.9669,-18.616233 l -0.32073,-10.05784 h -13.10746 c -10.8621,0 -13.81166,0.27755 -17.21822,1.62023 -6.367818,2.50984 -10.351671,6.29592 -13.413708,12.747763 l -2.710707,5.7116 v 149.81572 c 0,141.20224 0.08387,150.04109 1.458669,153.73582 1.906407,5.1234 4.654108,8.90804 8.71817,12.00828 6.894916,5.25974 -4.217995,4.91715 161.640606,4.98296 151.14256,0.06 152.0384,0.0503 156.51966,-1.68891 z"
       id="path1238"
       sodipodi:nodetypes="ssssssscsssscccsssccsssssssssscccssscsssscccsssscssscsssss" />
    <path
       style="fill:#ffffff;stroke-width:0.442503"
       d="m 247.00552,296.97716 c -5.36679,-0.87799 -13.14067,-3.39658 -17.57223,-5.69308 -6.18689,-3.20614 -10.00378,-6.04354 -15.30165,-11.37496 -4.65129,-4.68075 -6.20527,-6.74238 -17.85809,-23.69202 l -12.76348,-18.56512 -0.11669,13.34731 -0.11671,13.3473 h -6.60764 -6.60764 v -21.52893 -21.52893 l -0.99212,-0.23102 c -1.65471,-0.38531 -16.57841,-3.77269 -21.16516,-4.80407 -2.36454,-0.53169 -4.29917,-1.0756 -4.29917,-1.20869 0,-0.13307 19.69352,-18.45214 43.76336,-40.70903 24.06985,-22.25689 47.73183,-44.16091 52.58217,-48.67558 4.85034,-4.51467 8.86863,-8.07877 8.92952,-7.9202 0.0609,0.15855 -5.62433,17.61297 -12.63384,38.78759 l -12.74457,38.4993 6.02027,2.02064 c 3.31114,1.11136 6.15286,2.02064 6.31492,2.02064 0.16208,0 4.72447,-13.3887 10.13866,-29.75268 5.41418,-16.36398 9.9454,-29.75269 10.06937,-29.75269 0.12398,0 4.6552,13.38871 10.06938,29.75269 5.41419,16.36398 9.97659,29.75268 10.13865,29.75268 0.16207,0 3.00379,-0.90928 6.31493,-2.02064 l 6.02027,-2.02064 -12.74457,-38.4993 c -7.00951,-21.17462 -12.69474,-38.63717 -12.63385,-38.80565 0.11694,-0.32357 104.96131,96.22331 105.18483,96.86039 0.11173,0.31848 -15.06352,4.2541 -22.39775,5.80875 -1.33385,0.28274 -2.77242,0.61 -3.19682,0.72726 -0.72136,0.19928 -0.77165,1.61461 -0.77165,21.72065 v 21.50746 h -6.60764 -6.60764 l -0.11671,-13.3473 -0.11669,-13.34731 -12.78728,18.54656 c -13.85485,20.09497 -17.37432,24.37439 -24.43484,29.711 -3.99387,3.01873 -11.60542,7.04468 -16.35217,8.6491 -8.0463,2.7197 -19.90008,3.74359 -27.99973,2.41852 z m 20.85933,-14.16362 c 9.77788,-2.72702 18.80967,-8.70132 24.53705,-16.23065 3.78259,-4.97265 28.08638,-40.50772 27.86042,-40.73529 -0.12844,-0.12935 -3.66705,0.28791 -7.86356,0.92724 -39.72515,6.05208 -78.05717,5.83168 -117.17148,-0.67376 -1.72375,-0.28669 -3.24825,-0.40629 -3.38778,-0.26577 -0.2412,0.24291 23.92052,35.58942 27.84282,40.73164 5.63929,7.39324 14.71598,13.50615 23.76814,16.0072 5.58265,1.54245 7.15955,1.71763 13.91717,1.54613 5.16841,-0.13117 7.18001,-0.38157 10.49722,-1.30674 z"
       id="path2330" />
    <path
       id="path15827"
       style="color:#000000;font-size:40px;-inkscape-font-specification:'Dongle, Normal';white-space:pre;fill:#ffffff;stroke:none;stroke-width:2.78867;-inkscape-stroke:none"
       d="m 145.28905,329.01367 c -1.28781,4.8e-4 -2.53469,0.47903 -3.56054,1.31836 l -0.0234,0.0156 -8.25,7.34765 -0.0723,0.0937 c -0.7224,0.90297 -1.19726,1.90784 -1.19726,2.99024 0,1.06097 0.30328,2.11769 1.0664,2.84765 0.76315,0.72994 1.8151,1.00196 2.89258,1.00196 1.02252,0 2.03114,-0.3481 2.80078,-1.00782 l -0.0781,0.0664 6.41601,-4.73828 6.3086,4.73242 c 0.79572,0.59678 1.75524,0.94727 2.73437,0.94727 1.09573,0 2.13096,-0.23788 2.92383,-0.93164 0.79287,-0.69377 1.14453,-1.75827 1.14453,-2.80469 0,-1.11547 -0.46267,-2.18284 -1.19922,-3.10352 l -0.0703,-0.0937 -8.22461,-7.32031 -0.006,-0.006 c -0.98297,-0.88218 -2.26677,-1.355 -3.60351,-1.35547 z m 181.26563,16.16992 v 0.002 c -4.87964,0 -9.26238,1.05386 -13.05664,3.18554 -10e-4,7.3e-4 -0.003,-7.2e-4 -0.006,0 -0.002,0.001 -0.003,0.006 -0.006,0.006 -3.70614,2.05274 -6.62474,4.974 -8.67578,8.68164 -2.05715,3.71872 -3.07813,7.98834 -3.07813,12.72266 0,4.81302 1.05975,9.16003 3.19336,12.95313 2.11894,3.76701 5.01929,6.75851 8.64844,8.88867 3.64139,2.13732 7.7791,3.20312 12.30859,3.20312 2.723,0 5.48144,-0.39241 8.25781,-1.16015 2.78028,-0.69508 4.90376,-1.53635 6.42188,-2.69727 1.51085,-1.15537 2.44531,-2.78693 2.44531,-4.56445 0,-1.18625 -0.45103,-2.33422 -1.23047,-3.22852 -0.82578,-1.01335 -2.08689,-1.62305 -3.39843,-1.62305 -0.94349,0 -1.8463,0.32366 -2.78907,0.83789 l -0.0976,0.0488 -0.082,0.0703 c -0.76577,0.58905 -2.10222,1.25977 -3.9336,1.89648 -1.79676,0.55057 -3.62176,0.82812 -5.48437,0.82813 -4.20861,0 -7.37061,-1.40395 -9.875,-4.31446 -2.53886,-2.95055 -3.78516,-6.43709 -3.78516,-10.6914 0,-2.86372 0.55542,-5.4312 1.65039,-7.76172 1.16525,-2.32202 2.73366,-4.1206 4.75586,-5.46875 l 0.01,-0.01 0.0176,-0.006 c 1.99243,-1.3947 4.27333,-2.0918 7.00391,-2.0918 1.451,0 2.9035,0.16998 4.36328,0.51758 l 0.0117,0.006 h 0.006 c 1.58971,0.3613 2.9443,0.7528 4.05664,1.16992 0.70222,0.26325 1.37414,0.42579 2.05274,0.42579 1.35847,0 2.65994,-0.59063 3.5039,-1.62305 0.84801,-0.96109 1.34375,-2.1823 1.34375,-3.45313 0,-0.84491 -0.28528,-1.66337 -0.72851,-2.4082 -0.44086,-0.94078 -1.20682,-1.7079 -2.15821,-2.18359 l -0.0547,-0.0273 -0.0527,-0.0234 c -1.94839,-0.77935 -3.90653,-1.32989 -5.87305,-1.64454 l 0.006,0.006 c -1.86219,-0.31035 -3.75793,-0.46875 -5.6914,-0.46875 z m -181.48828,0.002 c -1.45128,0 -2.85723,0.42468 -4.10157,1.22461 -1.28811,0.82806 -2.26283,2.05819 -2.875,3.54492 l -0.0117,0.0234 -13.9746,37.9082 -0.0234,0.0762 c -0.16537,0.66122 -0.26172,1.22938 -0.26172,1.78711 0,1.42532 0.54428,2.78789 1.57422,3.71484 0.96697,0.87026 2.20954,1.36133 3.49804,1.36133 0.89009,0 1.76272,-0.2759 2.57618,-0.70898 1.01153,-0.42377 1.85738,-1.19521 2.35156,-2.1836 l 0.0449,-0.082 3.27734,-9.6289 h 16.5254 l 3.61718,9.64648 0.0332,0.0644 c 0.48464,0.96929 1.26081,1.75948 2.22656,2.19532 0.88002,0.43369 1.78836,0.69726 2.70117,0.69726 1.28851,0 2.5311,-0.49107 3.49805,-1.36133 1.02994,-0.92695 1.57812,-2.28952 1.57812,-3.71484 0,-0.55773 -0.10025,-1.12589 -0.26562,-1.78711 l -0.0234,-0.0859 -14.86914,-37.91015 -0.006,-0.01 c -0.6185,-1.50203 -1.66044,-2.73337 -3.01758,-3.55273 -1.23836,-0.78995 -2.63038,-1.21875 -4.07226,-1.21875 z m 36.2539,0.56054 c -1.48031,0 -2.91072,0.48338 -4.15625,1.37305 l -0.0234,0.0156 -0.0156,0.0117 c -1.29539,0.99648 -2.03475,2.55048 -2.21094,4.3125 v -0.0371 l -4.79297,37.48437 c -0.18963,1.5162 0.23507,3.02588 1.20313,4.1875 l 0.0391,0.0488 0.0488,0.0488 c 1.05702,1.05701 2.48868,1.63476 3.99805,1.63476 1.3279,0 2.5916,-0.48102 3.57226,-1.35156 1.05905,-0.87977 1.73225,-2.14201 1.83008,-3.51172 v 0.0312 l 2.47266,-25.49414 7.45703,20.32031 0.0215,0.0547 c 1.18636,2.54221 3.31557,4.15042 5.83985,4.15039 1.27347,0 2.48915,-0.33755 3.5332,-1.00195 1.12707,-0.71725 1.93594,-1.86242 2.45703,-3.25196 v -0.006 l 7.48828,-20.6914 2.31055,25.94726 0.006,0.0391 c 0.18879,1.32177 0.80865,2.52544 1.78515,3.40429 l 0.0293,0.0215 0.0215,0.0215 c 1.02636,0.83975 2.27399,1.31836 3.5625,1.31836 1.56491,0 3.03282,-0.57264 4.04101,-1.68164 l 0.0234,-0.0234 0.0215,-0.0273 c 0.96803,-1.16162 1.39267,-2.67325 1.20313,-4.18945 l -4.79297,-37.44532 c -0.17848,-1.78491 -0.98997,-3.3589 -2.36328,-4.33984 -1.24556,-0.88967 -2.67594,-1.37305 -4.15625,-1.37305 -1.35407,0 -2.67798,0.37619 -3.89844,1.06836 -1.26162,0.68303 -2.1995,1.8348 -2.66406,3.22852 l -8.61155,24.39658 -8.59961,-24.39648 -0.006,-0.006 c -0.4702,-1.4041 -1.47077,-2.54729 -2.7832,-3.21875 -1.16793,-0.70113 -2.49387,-1.07227 -3.88867,-1.07227 z m 75.06836,0 c -1.25207,4.2e-4 -2.47537,0.39765 -3.56055,1.1211 l -0.0215,0.0176 -0.0293,0.0156 c -1.19795,0.87124 -1.79687,2.3511 -1.79687,3.91602 v 35.36523 c 0,2.13799 0.69073,4.05792 2.08008,5.44727 1.38934,1.38934 3.30927,2.08007 5.44726,2.08007 h 16.0625 c 1.44944,0 2.82322,-0.46824 3.66016,-1.54101 0.75793,-0.95348 1.19336,-2.11418 1.19336,-3.31055 0,-1.13627 -0.45009,-2.23178 -1.17774,-3.16015 -0.81038,-1.1317 -2.20869,-1.69336 -3.67578,-1.69336 h -11.48633 c -0.82497,0 -1.18698,-0.17246 -1.26367,-0.21875 -0.0513,-0.0694 -0.24609,-0.40447 -0.24609,-1.28516 v -31.68359 c 0,-1.55168 -0.60346,-3.00876 -1.78125,-3.88282 -0.9685,-0.7645 -2.16215,-1.18705 -3.40235,-1.1875 z m 34.46875,0 c -1.25275,0 -2.46872,0.40571 -3.49804,1.1543 -1.19796,0.87124 -1.80274,2.3511 -1.80274,3.91602 v 38.93164 c 0,1.49629 0.63115,2.91779 1.78711,3.77539 1.01906,0.82067 2.24095,1.30078 3.51367,1.30078 1.30758,0 2.54897,-0.48308 3.52344,-1.32813 1.14031,-0.85949 1.77539,-2.26224 1.77539,-3.74804 v -38.93164 c 0,-1.55346 -0.60655,-3.01499 -1.78711,-3.88868 -0.98616,-0.77597 -2.21945,-1.18164 -3.51172,-1.18164 z m 61.91016,0 c -1.39434,0 -2.72328,0.46017 -3.72461,1.36133 -1.02994,0.92696 -1.57422,2.28367 -1.57422,3.70899 v 39.04101 c 0,1.37309 0.56335,2.6957 1.57422,3.60547 1.00133,0.90119 2.33027,1.36133 3.72461,1.36133 1.43636,0 2.77669,-0.45729 3.73633,-1.39844 0.99092,-0.90869 1.55859,-2.20975 1.55859,-3.56836 v -14.16601 c 0,-0.89857 0.20413,-1.33983 0.4082,-1.5586 0.20413,-0.21863 0.5321,-0.39062 1.32422,-0.39062 h 16.0625 c 0.7921,0 1.11808,0.17194 1.32227,0.39062 0.20413,0.21891 0.40429,0.66003 0.40429,1.5586 v 14.16601 c 0,1.3399 0.49113,2.62589 1.41602,3.55078 l 0.0215,0.0293 0.0274,0.0273 c 1.01848,0.91664 2.38466,1.36133 3.83594,1.36133 1.43633,0 2.77669,-0.45924 3.73632,-1.40039 0.99093,-0.90869 1.5625,-2.20777 1.5625,-3.5664 v -39.04102 c 0,-1.41241 -0.55054,-2.75139 -1.5625,-3.67774 -0.95963,-0.94112 -2.29999,-1.39453 -3.73632,-1.39453 -1.45128,0 -2.81746,0.44665 -3.83594,1.36329 l -0.0274,0.0215 -0.0215,0.0273 c -0.94316,0.94316 -1.41602,2.26582 -1.41602,3.66016 v 11.26953 c 0,0.89857 -0.20008,1.33985 -0.40429,1.55859 -0.20413,0.21864 -0.53017,0.39063 -1.32227,0.39063 h -16.0625 c -0.79212,0 -1.12003,-0.17191 -1.32422,-0.39063 -0.20413,-0.21863 -0.4082,-0.66002 -0.4082,-1.55859 v -11.26953 c 0,-1.41241 -0.54664,-2.74944 -1.55859,-3.67578 -0.95964,-0.94112 -2.3,-1.39453 -3.73633,-1.39453 z m -207.63477,12.53711 5.0586,14.45508 h -9.77539 z m 145.83789,38.76953 c -1.70647,0 -3.31405,0.58254 -4.59179,1.67774 l -0.0371,0.0332 -0.0391,0.0371 c -1.18161,1.18164 -1.85742,2.71634 -1.85742,4.33594 0,1.67423 0.67441,3.24107 1.89649,4.36914 1.27157,1.18075 2.89798,1.81836 4.6289,1.81836 1.66158,0 3.22118,-0.66456 4.41211,-1.8418 1.21028,-1.12676 1.89063,-2.68 1.89063,-4.3457 0,-1.6196 -0.67578,-3.1543 -1.85742,-4.33594 l -0.0234,-0.0156 -0.0215,-0.0234 c -1.20241,-1.10992 -2.75198,-1.70899 -4.40039,-1.70899 z"
       inkscape:label="text" />
  </g>
</svg>
