<?xml version="1.0" encoding="UTF-8" standalone="no"?>
<!-- Created with Inkscape (http://www.inkscape.org/) -->

<svg
   width="24"
   height="24"
   viewBox="0 0 24 24"
   version="1.1"
   id="svg5"
   inkscape:version="1.1.1 (26b7af14f2, 2022-01-19)"
   sodipodi:docname="calendar-month.svg"
   xmlns:inkscape="http://www.inkscape.org/namespaces/inkscape"
   xmlns:sodipodi="http://sodipodi.sourceforge.net/DTD/sodipodi-0.dtd"
   xmlns="http://www.w3.org/2000/svg"
   xmlns:svg="http://www.w3.org/2000/svg">
  <sodipodi:namedview
     id="namedview7"
     pagecolor="#ffffff"
     bordercolor="#999999"
     borderopacity="1"
     inkscape:pageshadow="0"
     inkscape:pageopacity="0"
     inkscape:pagecheckerboard="0"
     inkscape:document-units="px"
     showgrid="false"
     units="px"
     width="24px"
     inkscape:zoom="4.7749719"
     inkscape:cx="7.3298861"
     inkscape:cy="13.298508"
     inkscape:window-width="1600"
     inkscape:window-height="845"
     inkscape:window-x="0"
     inkscape:window-y="22"
     inkscape:window-maximized="1"
     inkscape:current-layer="g24951"
     inkscape:snap-global="false" />
  <defs
     id="defs2" />
  <g
     id="g20"
     transform="matrix(0.06241873,0,0,-0.06241873,-10.221068,34.221068)"
     inkscape:label="guidelines"
     style="display:inline">
    <path
       d="M 164,548 H 548 V 164 H 164 Z"
       style="display:inline;opacity:0.100006;fill:#66ddb7;fill-opacity:1;fill-rule:nonzero;stroke:none"
       id="path104" />
    <path
       d="M 164,548 H 548 V 164 H 164 Z"
       style="fill:none;stroke:#65dcb7;stroke-width:0.5;stroke-linecap:butt;stroke-linejoin:miter;stroke-miterlimit:4;stroke-dasharray:none;stroke-opacity:1"
       id="path112" />
    <path
       d="m 164.4194,164.3096 383.226,383.305"
       style="opacity:0.300003;fill:none;stroke:#65dcb7;stroke-width:0.5;stroke-linecap:square;stroke-linejoin:miter;stroke-miterlimit:4;stroke-dasharray:none;stroke-opacity:1"
       id="path136" />
    <path
       d="m 547.4814,164.5293 -383.107,383.047"
       style="opacity:0.300003;fill:none;stroke:#65dcb7;stroke-width:0.5;stroke-linecap:square;stroke-linejoin:miter;stroke-miterlimit:4;stroke-dasharray:none;stroke-opacity:1"
       id="path148" />
    <path
       d="M 300,548 V 164"
       style="opacity:0.300003;fill:none;stroke:#65dcb7;stroke-width:0.5;stroke-linecap:square;stroke-linejoin:miter;stroke-miterlimit:4;stroke-dasharray:none;stroke-opacity:1"
       id="path160" />
    <path
       d="M 356,548 V 164"
       style="opacity:0.300003;fill:none;stroke:#65dcb7;stroke-width:0.5;stroke-linecap:square;stroke-linejoin:miter;stroke-miterlimit:4;stroke-dasharray:none;stroke-opacity:1"
       id="path172" />
    <path
       d="M 412.0801,548 V 164"
       style="opacity:0.300003;fill:none;stroke:#65dcb7;stroke-width:0.5;stroke-linecap:square;stroke-linejoin:miter;stroke-miterlimit:4;stroke-dasharray:none;stroke-opacity:1"
       id="path184" />
    <path
       d="M 547.7334,412 H 164.0004"
       style="opacity:0.300003;fill:none;stroke:#65dcb7;stroke-width:0.2;stroke-linecap:square;stroke-linejoin:miter;stroke-miterlimit:4;stroke-dasharray:none;stroke-opacity:1"
       id="path196" />
    <path
       d="M 547.7334,356 H 164.0004"
       style="opacity:0.300003;fill:none;stroke:#65dcb7;stroke-width:0.2;stroke-linecap:square;stroke-linejoin:miter;stroke-miterlimit:4;stroke-dasharray:none;stroke-opacity:1"
       id="path208" />
    <path
       d="M 547.7334,300 H 164.0004"
       style="opacity:0.300003;fill:none;stroke:#65dcb7;stroke-width:0.5;stroke-linecap:square;stroke-linejoin:miter;stroke-miterlimit:4;stroke-dasharray:none;stroke-opacity:1"
       id="path220" />
    <g
       id="g16581"
       transform="matrix(0.81702107,0,0,0.81702107,65.140538,65.140498)">
      <path
         d="m 356,436 c 44.183,0 80,-35.817 80,-80 0,-44.183 -35.817,-80 -80,-80 -44.183,0 -80,35.817 -80,80 0,44.183 35.817,80 80,80 z"
         style="fill:none;stroke:#65dcb7;stroke-width:0.5;stroke-linecap:butt;stroke-linejoin:miter;stroke-miterlimit:4;stroke-dasharray:none;stroke-opacity:1"
         id="path130" />
      <path
         d="m 231.0039,532 h 249.992 c 1.659,0 3.004,-1.345 3.004,-3.004 V 183.004 c 0,-1.659 -1.345,-3.004 -3.004,-3.004 h -249.992 c -1.659,0 -3.004,1.345 -3.004,3.004 v 345.992 c 0,1.659 1.345,3.004 3.004,3.004 z"
         style="fill:none;stroke:#65dcb7;stroke-width:0.5;stroke-linecap:butt;stroke-linejoin:miter;stroke-miterlimit:4;stroke-dasharray:none;stroke-opacity:1"
         id="path118" />
      <path
         d="m 207.0039,508 h 297.992 c 1.659,0 3.004,-1.345 3.004,-3.004 V 207.004 c 0,-1.659 -1.345,-3.004 -3.004,-3.004 h -297.992 c -1.659,0 -3.004,1.345 -3.004,3.004 v 297.992 c 0,1.659 1.345,3.004 3.004,3.004 z"
         style="fill:none;stroke:#65dcb7;stroke-width:0.5;stroke-linecap:butt;stroke-linejoin:miter;stroke-miterlimit:4;stroke-dasharray:none;stroke-opacity:1"
         id="path122" />
      <path
         d="m 356,532 c 97.202,0 176,-78.798 176,-176 0,-97.202 -78.798,-176 -176,-176 -97.202,0 -176,78.798 -176,176 0,97.202 78.798,176 176,176 z"
         style="fill:none;stroke:#65dcb7;stroke-width:0.5;stroke-linecap:butt;stroke-linejoin:miter;stroke-miterlimit:4;stroke-dasharray:none;stroke-opacity:1"
         id="path126" />
      <path
         d="m 183.0039,484 h 345.992 c 1.659,0 3.004,-1.345 3.004,-3.004 V 231.004 c 0,-1.659 -1.345,-3.004 -3.004,-3.004 h -345.992 c -1.659,0 -3.004,1.345 -3.004,3.004 v 249.992 c 0,1.659 1.345,3.004 3.004,3.004 z"
         style="fill:none;stroke:#65dcb7;stroke-width:0.5;stroke-linecap:butt;stroke-linejoin:miter;stroke-miterlimit:4;stroke-dasharray:none;stroke-opacity:1"
         id="path114" />
    </g>
  </g>
  <path
     style="opacity:1;fill:#000000;stroke-width:0.0427866"
     d="M 3.8560607,22.619202 C 3.2863188,22.544568 2.677576,22.231991 2.2189633,21.77858 1.8285579,21.392601 1.6114871,21.028918 1.4695237,20.522961 c -0.0885,-0.315421 -0.089051,-0.364017 -0.089051,-7.951632 0,-7.5876148 5.422e-4,-7.6362113 0.089051,-7.9516318 C 1.7280686,3.6982411 2.4420732,2.9535667 3.3651979,2.6425931 3.7042645,2.5283712 3.7797967,2.5196304 4.5721581,2.50292 L 5.4174163,2.485093 5.4351563,1.9588885 C 5.4520283,1.4581541 5.4590823,1.4238905 5.5807069,1.2510092 5.8787475,0.82737076 6.4389818,0.76355706 6.811508,1.1108138 7.0217243,1.3067705 7.0635574,1.4549208 7.0635574,2.0034351 v 0.4903598 h 4.9046916 4.904691 l 0.01418,-0.5454586 c 0.01285,-0.4941121 0.02395,-0.5595168 0.117936,-0.6948041 0.407632,-0.58676994 1.27375,-0.44411015 1.463237,0.2410141 0.02588,0.093547 0.04716,0.35465 0.04728,0.58023 l 2.58e-4,0.4101454 0.850309,0.017914 c 0.797847,0.016808 0.872626,0.02543 1.212012,0.139759 0.923124,0.3109736 1.637128,1.055648 1.895674,1.9771041 0.0885,0.3154074 0.08905,0.3642182 0.08905,7.9333462 0,7.45843 -0.0018,7.622813 -0.08549,7.946108 -0.275244,1.062872 -1.233015,1.929169 -2.326621,2.104405 -0.264716,0.04241 -15.9751595,0.05749 -16.2946917,0.01565 z M 20.125454,20.946163 c 0.29623,-0.109463 0.560848,-0.360317 0.708744,-0.671884 l 0.114151,-0.240473 V 12.570435 5.1070633 L 20.806922,4.8233366 C 20.647164,4.5028377 20.439316,4.3147649 20.107082,4.1900875 19.929136,4.1233093 19.775378,4.1096022 19.204215,4.1096022 h -0.688396 v 0.4063832 c 0,0.5379559 -0.05983,0.7582651 -0.259503,0.9554638 C 17.953974,5.770052 17.482431,5.7870174 17.163845,5.5107541 16.924762,5.3034325 16.879781,5.1596596 16.879781,4.6028003 V 4.1096019 H 11.971668 7.0635555 v 0.4931984 c 0,0.5568593 -0.044981,0.7006322 -0.2840644,0.9079542 C 6.4870903,5.7643121 6.064852,5.7738092 5.7464954,5.5339887 5.518289,5.36208 5.4539994,5.1711074 5.435181,4.6092257 L 5.4184469,4.1096014 H 4.7345837 c -0.5667117,0 -0.7206007,0.013787 -0.8983316,0.080485 C 3.5040209,4.3147632 3.2961698,4.5028371 3.1364131,4.8233333 L 2.9949857,5.1070576 v 7.4421134 c 0,7.014238 0.00435,7.45331 0.076098,7.636845 0.099461,0.254507 0.2428212,0.442509 0.454857,0.596514 0.3597311,0.261279 -0.2200671,0.244261 8.4333423,0.247529 7.885621,0.003 7.93236,0.0025 8.166164,-0.08389 z"
     id="path1258"
     sodipodi:nodetypes="sssscssccssscccccsccsssscssscscccssscsssscccsssscssscscscc" />
  <g
     id="g24951"
     transform="translate(-0.04179495,3.5446232)">
    <g
       id="g25608"
       transform="matrix(0.84859986,0,0,0.84859986,1.7331611,1.4375887)">
      <g
         id="g25498"
         transform="translate(0.1435942)">
        <circle
           style="opacity:1;fill:#000000;stroke:#000000;stroke-width:0.9;stroke-miterlimit:4;stroke-dasharray:none"
           id="path25409"
           cx="6.632381"
           cy="4.6229343"
           r="1" />
        <circle
           style="opacity:1;fill:#000000;stroke:#000000;stroke-width:0.9;stroke-miterlimit:4;stroke-dasharray:none"
           id="circle25491"
           cx="17.164021"
           cy="4.6229343"
           r="1" />
        <circle
           style="opacity:1;fill:#000000;stroke:#000000;stroke-width:0.9;stroke-miterlimit:4;stroke-dasharray:none"
           id="circle25493"
           cx="11.898199"
           cy="4.6229343"
           r="1" />
      </g>
      <g
         id="g25506"
         transform="translate(0.1435942,4.4542765)">
        <circle
           style="opacity:1;fill:#000000;stroke:#000000;stroke-width:0.9;stroke-miterlimit:4;stroke-dasharray:none"
           id="circle25500"
           cx="6.632381"
           cy="4.6229343"
           r="1" />
        <circle
           style="opacity:1;fill:#000000;stroke:#000000;stroke-width:0.9;stroke-miterlimit:4;stroke-dasharray:none"
           id="circle25502"
           cx="17.164021"
           cy="4.6229343"
           r="1" />
        <circle
           style="opacity:1;fill:#000000;stroke:#000000;stroke-width:0.9;stroke-miterlimit:4;stroke-dasharray:none"
           id="circle25504"
           cx="11.898199"
           cy="4.6229343"
           r="1" />
      </g>
      <g
         id="g25514"
         transform="translate(0.1435942,8.9085529)">
        <circle
           style="opacity:1;fill:#000000;stroke:#000000;stroke-width:0.9;stroke-miterlimit:4;stroke-dasharray:none"
           id="circle25508"
           cx="6.632381"
           cy="4.6229343"
           r="1" />
        <circle
           style="opacity:1;fill:#000000;stroke:#000000;stroke-width:0.9;stroke-miterlimit:4;stroke-dasharray:none"
           id="circle25510"
           cx="17.164021"
           cy="4.6229343"
           r="1" />
        <circle
           style="opacity:1;fill:#000000;stroke:#000000;stroke-width:0.9;stroke-miterlimit:4;stroke-dasharray:none"
           id="circle25512"
           cx="11.898199"
           cy="4.6229343"
           r="1" />
      </g>
    </g>
  </g>
</svg>
